<?xml version="1.0" encoding="utf-8"?>
<!-- Generator: Adobe Illustrator 25.2.1, SVG Export Plug-In . SVG Version: 6.00 Build 0)  -->
<svg version="1.1" id="Livello_1" xmlns="http://www.w3.org/2000/svg" xmlns:xlink="http://www.w3.org/1999/xlink" x="0px" y="0px"
	 viewBox="0 0 24 24" style="enable-background:new 0 0 24 24;" xml:space="preserve">
<style type="text/css">
	.st0{fill:#1E2438;}
</style>
<path class="st0" d="M17,9.2c-0.4-0.4-1-0.4-1.4,0L12,12.7L8.5,9.2c-0.4-0.4-1-0.4-1.4,0c-0.4,0.4-0.4,1,0,1.4c0,0,0,0,0,0l4.2,4.2
	c0.4,0.4,1,0.4,1.4,0c0,0,0,0,0,0l4.3-4.2C17.4,10.2,17.4,9.6,17,9.2C17,9.2,17,9.2,17,9.2z"/>
</svg>
