<?xml version="1.0" encoding="utf-8"?>
<!-- Generator: Adobe Illustrator 25.2.1, SVG Export Plug-In . SVG Version: 6.00 Build 0)  -->
<svg version="1.1" id="Livello_1" xmlns="http://www.w3.org/2000/svg" xmlns:xlink="http://www.w3.org/1999/xlink" x="0px" y="0px"
	 viewBox="0 0 24 24" style="enable-background:new 0 0 24 24;" xml:space="preserve">
<style type="text/css">
	.st0{fill:#0c121e;}
</style>
<path class="st0" d="M17.7,16.2L13.4,12l4.2-4.2c0.4-0.4,0.4-1,0-1.4s-1-0.4-1.4,0L12,10.6L7.8,6.3c-0.4-0.4-1-0.4-1.4,0
	s-0.4,1,0,1.4l4.2,4.2l-4.2,4.2c-0.4,0.4-0.4,1,0,1.4c0.4,0.4,1,0.4,1.4,0l4.2-4.2l4.2,4.2c0.4,0.4,1,0.4,1.4,0
	C18.1,17.2,18.1,16.7,17.7,16.2z"/>
</svg>
